<svg width="24" height="24" viewBox="0 0 24 24" fill="none" xmlns="http://www.w3.org/2000/svg">
<path d="M22.7649 12.2529C22.7649 11.5052 22.7043 10.7534 22.575 10.0178H12.1997V14.2536H18.1411C17.8946 15.6197 17.1024 16.8282 15.9424 17.5962V20.3445H19.4871C21.5686 18.4287 22.7649 15.5995 22.7649 12.2529Z" fill="#4285F4"/>
<path d="M12.1997 22.9998C15.1664 22.9998 17.6683 22.0257 19.4911 20.3444L15.9464 17.5959C14.9603 18.2669 13.6871 18.6469 12.2038 18.6469C9.33408 18.6469 6.90096 16.7108 6.0279 14.1079H2.37012V16.9412C4.23742 20.6556 8.04072 22.9998 12.1997 22.9998Z" fill="#34A853"/>
<path d="M6.02407 14.1083C5.5633 12.7422 5.5633 11.2629 6.02407 9.89674V7.06348H2.37029C0.810164 10.1716 0.810164 13.8335 2.37029 16.9416L6.02407 14.1083Z" fill="#FBBC04"/>
<path d="M12.1997 5.35362C13.768 5.32937 15.2836 5.91947 16.4194 7.00264L19.5598 3.8622C17.5712 1.9949 14.932 0.968285 12.1997 1.00062C8.04072 1.00062 4.23742 3.34485 2.37012 7.06329L6.02388 9.89656C6.89286 7.28962 9.33006 5.35362 12.1997 5.35362Z" fill="#EA4335"/>
</svg>
